<?xml version="1.0" encoding="utf-8"?>
<!-- Generator: Adobe Illustrator 17.0.0, SVG Export Plug-In . SVG Version: 6.00 Build 0)  -->
<!DOCTYPE svg PUBLIC "-//W3C//DTD SVG 1.1//EN" "http://www.w3.org/Graphics/SVG/1.1/DTD/svg11.dtd">
<svg version="1.1" id="Layer_1" xmlns="http://www.w3.org/2000/svg" xmlns:xlink="http://www.w3.org/1999/xlink" x="0px" y="0px"
	 width="175.602px" height="175.602px" viewBox="0 0 175.602 175.602" enable-background="new 0 0 175.602 175.602"
	 xml:space="preserve">
<g>
	<path fill-rule="evenodd" clip-rule="evenodd" d="M87.801,0C39.301,0,0,39.302,0,87.801c0,48.493,39.301,87.801,87.801,87.801
		c48.492,0,87.801-39.336,87.801-87.801C175.602,39.302,136.293,0,87.801,0L87.801,0z M87.801,164.614
		c-42.443,0-76.813-34.404-76.813-76.813c0-42.443,34.37-76.813,76.813-76.813c42.409,0,76.813,34.37,76.813,76.813
		C164.614,130.21,130.21,164.614,87.801,164.614L87.801,164.614z M120.731,82.307H93.295V54.871c0-3.025-2.469-5.494-5.494-5.494
		c-3.032,0-5.494,2.469-5.494,5.494v27.436H54.871c-3.025,0-5.494,2.462-5.494,5.494c0,3.025,2.469,5.494,5.494,5.494h27.436v27.436
		c0,3.025,2.462,5.46,5.494,5.46c3.025,0,5.494-2.435,5.494-5.46V93.295h27.436c3.025,0,5.46-2.469,5.46-5.494
		C126.19,84.769,123.755,82.307,120.731,82.307L120.731,82.307z M120.731,82.307"/>
</g>
</svg>
