<?xml version="1.0" encoding="iso-8859-1"?>
<!-- Generator: Adobe Illustrator 17.0.0, SVG Export Plug-In . SVG Version: 6.00 Build 0)  -->
<!DOCTYPE svg PUBLIC "-//W3C//DTD SVG 1.1//EN" "http://www.w3.org/Graphics/SVG/1.1/DTD/svg11.dtd">
<svg version="1.1" id="Isolation_Mode" xmlns="http://www.w3.org/2000/svg" xmlns:xlink="http://www.w3.org/1999/xlink" x="0px"
	 y="0px" width="163.15px" height="165.516px" viewBox="0 0 163.15 165.516" style="enable-background:new 0 0 163.15 165.516;"
	 xml:space="preserve">
<g>
	<path d="M131.571,72.77c-2.838-0.002-5.261,2.392-5.257,5.192c0.004,2.773,2.554,5.437,5.268,5.245
		c2.812-0.199,5.043-1.938,5.144-5.194C136.815,75.119,134.453,72.772,131.571,72.77z"/>
	<path d="M114.539,136.632c-10.68-0.02-21.359-0.008-32.039-0.008c0-0.002,0-0.003,0-0.005c-6.56,0-13.12-0.001-19.679,0
		c-4.16,0.001-8.32-0.034-12.479,0.023c-2.953,0.041-4.816,3.019-3.586,5.655c0.792,1.697,2.184,2.359,4.039,2.358
		c21.159-0.019,42.319-0.011,63.478-0.014c0.399,0,0.802-0.016,1.195-0.075c1.263-0.19,2.212-0.883,2.766-2.006
		C119.663,139.663,117.789,136.639,114.539,136.632z"/>
	<path d="M114.054,115.884c-16.274,0.016-32.549,0.009-48.823,0.01c-4.838,0-9.677,0.05-14.515-0.017
		c-2.579-0.036-4.299,1.98-4.267,3.864c0.044,2.626,1.561,4.162,4.258,4.175c2.519,0.013,5.038,0.003,7.557,0.003
		c18.554,0,37.107,0.004,55.661-0.013c0.731-0.001,1.466-0.117,2.287-0.223c0.024-0.015,0.051-0.027,0.075-0.042
		c0.266-0.109,0.911-0.439,1.536-1.265c0.975-1.212,1.155-2.547,0.553-4.006C117.577,116.435,116.006,115.882,114.054,115.884z"/>
	<path d="M163.135,93.338V80.228c0.012-0.14,0.016-0.286,0.015-0.442c-0.008-0.85-0.008-1.701-0.015-2.551v-3.48h-0.02
		c-0.01-1.669-0.03-3.338-0.029-5.006c0.002-3.327-0.614-6.49-2.328-9.386c-3.062-5.173-7.56-8.266-13.537-8.882
		c-2.846-0.293-5.748-0.05-8.837-0.05c0-0.698,0-1.13,0-1.561c0-2.594,0.002-5.188-0.001-7.781h0.002v-15.13
		c0.043-2.845,0.057-5.691-0.039-8.532c-0.056-1.658-0.303-3.368-0.811-4.941C135.151,5.102,128.312-0.044,120.22,0
		c-16.398,0.089-32.797,0.026-49.196,0.027c-9.559,0-19.119,0.024-28.678-0.015c-2.616-0.011-5.125,0.519-7.393,1.685
		C28.15,5.196,24.704,10.855,24.69,18.533c-0.018,10.079-0.004,20.158-0.004,30.236c0,0.469,0,0.937,0,1.547
		c-2.33,0-4.519,0.008-6.707-0.002c-4.069-0.018-7.755,1.167-10.959,3.665c-4.033,3.144-6.636,7.228-6.852,12.397
		c-0.114,2.735-0.144,5.473-0.151,8.212H0.012v25.691c-0.013,6.591-0.014,13.182-0.01,19.773c0.002,3.425,0.853,6.618,2.737,9.498
		c3.059,4.675,7.316,7.435,12.902,8.182c0.317,0.042,0.618,0.079,0.909,0.096v0.01h0.378c0.014,0,0.028,0,0.042,0h4.526
		c0.008,0.027,0.019,0.047,0.026,0.075c0.584,0,1.165,0,1.984,0c-0.019-0.029-0.03-0.047-0.049-0.075h1.176v8.75h0.041
		c0.014,0.936,0.045,1.868,0.12,2.794c0.314,3.894,1.88,7.389,4.577,10.277c3.794,4.062,8.487,5.878,14.061,5.856
		c17.118-0.067,34.237-0.001,51.356-0.008c9.079-0.004,18.158-0.008,27.237-0.104c2.795-0.029,5.375-1.027,7.731-2.521
		c5.866-3.719,8.632-9.123,8.627-16.013c-0.002-2.6-0.002-5.2,0.004-7.799c0.001-0.344,0.045-0.687,0.073-1.091
		c2.266,0,4.444,0.19,6.574-0.05c2.432-0.274,5.01-0.513,7.192-1.501c6.894-3.12,10.725-8.602,10.816-16.258
		C163.148,111.228,163.142,102.283,163.135,93.338L163.135,93.338z M32.755,17.917c0.025-5.604,4.452-9.914,10.09-9.92
		c12.92-0.015,25.839-0.005,38.759-0.005c12.76-0.001,25.519-0.006,38.279,0.002c4.323,0.003,7.615,1.838,9.472,5.78
		c0.609,1.292,0.928,2.841,0.939,4.276c0.078,10.359,0.024,20.719,0.068,31.079c0.005,1.245-0.638,1.194-1.503,1.194
		c-27.114-0.01-54.227-0.008-81.341-0.008c-4.516,0-9.033-0.028-13.549,0.021c-0.957,0.01-1.243-0.282-1.241-1.219
		C32.752,38.716,32.708,28.316,32.755,17.917z M126.008,155.725c-1.711,1.193-3.629,1.768-5.727,1.764
		c-10.958-0.017-21.916-0.032-32.874-0.031c-14.755,0.001-29.511-0.037-44.265,0.055c-5.948,0.037-10.462-4.564-10.426-10.464
		c0.086-14.117,0.027-28.235,0.028-42.352c0-1.668,0.004-1.669,1.709-1.669c31.434,0,62.869,0,94.303,0
		c1.575,0,1.58,0.002,1.583,1.555c0.003,2.03,0.003,4.06,0.005,6.09h-0.002v5.349c-0.015,0.258-0.007,0.526-0.007,0.794
		c0.012,10.078,0.006,20.156,0.007,30.234C130.341,150.664,129.017,153.626,126.008,155.725z M155.06,119.726
		c0.041,5.3-4.43,10.374-10.101,10.056c-2.141-0.12-4.295-0.02-6.547-0.02c0-11.596,0-23.057,0-34.639c-37.938,0-75.771,0-113.703,0
		c0,11.511,0,22.973,0,34.513c-0.389,0.049-0.689,0.119-0.989,0.12c-2.08,0.008-4.159-0.022-6.239,0.005
		c-5.074,0.066-9.442-4.607-9.429-9.465c0.017-6.625,0.018-13.25,0.014-19.875h0.001V81.046c0.025-0.017,0.051-0.034,0.076-0.052
		c-0.025-0.087-0.051-0.173-0.076-0.26v-5.4c0.031-2.405,0.052-4.811-0.027-7.213c-0.132-4.003,3.018-8.402,7.111-9.318
		c0.96-0.215,1.95-0.425,2.926-0.426c42.271-0.021,84.543,0.01,126.814-0.05c5.766-0.008,10.216,4.863,10.173,10.169
		C154.924,85.572,154.929,102.65,155.06,119.726z"/>
</g>
</svg>
