<?xml version="1.0" encoding="iso-8859-1"?>
<!-- Generator: Adobe Illustrator 17.0.0, SVG Export Plug-In . SVG Version: 6.00 Build 0)  -->
<!DOCTYPE svg PUBLIC "-//W3C//DTD SVG 1.1//EN" "http://www.w3.org/Graphics/SVG/1.1/DTD/svg11.dtd">
<svg version="1.1" id="Capa_1" xmlns="http://www.w3.org/2000/svg" xmlns:xlink="http://www.w3.org/1999/xlink" x="0px" y="0px"
	 width="430.23px" height="377.079px" viewBox="-7.218 208.006 430.23 377.079"
	 style="enable-background:new -7.218 208.006 430.23 377.079;" xml:space="preserve">
<g>
	<path d="M210.657,428.869c24.237,0,43.886-19.648,43.886-43.886s-19.648-43.886-43.886-43.886s-43.886,19.648-43.886,43.886
		C166.771,409.221,186.42,428.869,210.657,428.869L210.657,428.869z M210.657,361.996c12.696,0,22.988,10.292,22.988,22.988
		s-10.292,22.988-22.988,22.988c-12.696,0-22.988-10.292-22.988-22.988C187.669,372.288,197.961,361.996,210.657,361.996
		L210.657,361.996z"/>
	<path d="M385.678,240.788L100.42,208.396c-11.071-1.574-22.288,1.658-30.824,8.882c-8.535,6.618-14.006,16.428-15.151,27.167
		l-5.224,42.841H33.024c-22.988,0-40.229,20.376-40.229,43.363v213.682c-0.579,21.921,16.722,40.162,38.644,40.741
		c0.528,0.014,1.057,0.017,1.585,0.01h286.824c22.988,0,43.886-17.763,43.886-40.751v-8.359c7.127-1.377,13.888-4.224,19.853-8.359
		c8.465-7.127,13.885-17.22,15.151-28.212l24.033-212.114C425.221,264.245,408.687,243.518,385.678,240.788z M33.024,308.184
		h286.824c12.28,0.509,22.197,10.201,22.988,22.465v87.771l-113.894,66.351c-9.78,5.794-22.159,4.745-30.824-2.612l-57.469-50.678
		c-16.471-14.153-40.545-15.021-57.992-2.09l-68.963,50.155V330.649C13.694,319.155,21.531,308.184,33.024,308.184z
		 M319.849,564.184H33.024c-10.383,0.305-19.047-7.865-19.352-18.248c-0.016-0.535-0.009-1.07,0.021-1.605v-38.661l80.98-59.559
		c9.728-7.468,23.43-6.805,32.392,1.567l56.947,50.155c8.648,7.261,19.534,11.32,30.824,11.494
		c8.828,0.108,17.511-2.243,25.078-6.792l102.922-59.559v101.355C342.837,555.824,331.343,564.184,319.849,564.184z
		 M401.873,284.673l-24.555,212.114c0.042,5.5-2.466,10.709-6.792,14.106c-2.09,2.09-6.792,3.135-6.792,4.18V330.649
		c-0.825-23.801-20.077-42.824-43.886-43.363H70.118l4.702-40.751c1.02-5.277,3.779-10.059,7.837-13.584
		c4.582-3.168,10.122-4.645,15.673-4.18l284.735,32.914c11.49,1.091,19.92,11.29,18.829,22.78
		C401.888,284.535,401.881,284.604,401.873,284.673z"/>
</g>
</svg>
