<?xml version="1.0" standalone="no"?>
<!DOCTYPE svg PUBLIC "-//W3C//DTD SVG 20010904//EN"
 "http://www.w3.org/TR/2001/REC-SVG-20010904/DTD/svg10.dtd">
<svg version="1.0" xmlns="http://www.w3.org/2000/svg"
 width="1840.000000pt" height="1840.000000pt" viewBox="0 0 1840.000000 1840.000000"
 preserveAspectRatio="xMidYMid meet">
<metadata>
Created by potrace 1.14, written by Peter Selinger 2001-2017
</metadata>
<g transform="translate(0.000000,1840.000000) scale(0.100000,-0.100000)"
fill="#000000" stroke="none">
<path d="M16453 12118 c-10 -14 -11 -964 -1 -974 9 -8 147 -8 156 0 3 4 6 57
7 117 0 108 1 111 27 130 l27 20 28 -32 c15 -18 37 -42 48 -53 11 -12 49 -55
85 -96 36 -41 70 -80 76 -86 6 -7 42 -12 85 -12 41 0 86 5 102 12 l27 11 -27
30 c-16 17 -55 62 -87 100 -33 39 -69 80 -80 91 -12 12 -30 32 -40 45 -11 13
-33 39 -49 58 l-29 34 53 52 c30 28 63 62 74 76 49 59 84 108 112 156 37 60
34 62 -69 58 -94 -4 -98 -4 -98 -15 0 -14 -93 -142 -133 -182 -32 -33 -116
-98 -127 -98 -3 0 -5 123 -5 273 1 149 -1 278 -3 285 -3 8 -28 12 -77 12 -46
0 -76 -4 -82 -12z"/>
<path d="M18242 12121 c-8 -4 -13 -17 -12 -27 1 -11 2 -72 1 -136 l-1 -117
-30 11 c-37 12 -138 15 -198 5 -56 -9 -138 -50 -181 -90 -27 -26 -99 -136 -94
-144 1 -1 -4 -22 -11 -45 -19 -63 -12 -182 14 -251 25 -67 85 -134 149 -166
43 -22 54 -26 121 -40 38 -8 180 -6 220 3 14 3 39 9 55 12 17 4 51 16 78 27
l47 21 -2 470 -3 471 -70 3 c-38 1 -76 -2 -83 -7z m-29 -426 c9 -4 17 -13 18
-21 0 -8 0 -84 0 -169 0 -232 1 -223 -18 -229 -146 -44 -279 -1 -324 104 -15
33 -19 152 -7 168 6 6 8 12 4 12 -10 0 19 52 46 81 35 40 72 60 125 68 46 6
119 0 156 -14z"/>
<path d="M17427 11863 c-72 -12 -145 -41 -192 -76 -19 -14 -20 -28 -20 -327 0
-171 3 -314 6 -316 11 -7 144 -8 155 -2 5 4 9 117 8 278 l0 273 33 13 c18 8
43 14 55 15 31 1 119 -7 138 -12 20 -5 57 69 56 112 -1 30 -5 34 -36 40 -72
14 -127 15 -203 2z"/>
<path d="M10 11842 c-7 -3 -10 -942 -10 -2788 l0 -2784 1529 0 1529 0 -2 2042
-1 2043 -265 131 c-146 73 -489 244 -762 380 -472 235 -499 247 -525 235 -15
-7 -30 -12 -32 -11 -2 1 -7 -2 -10 -7 -8 -10 -318 -165 -327 -163 -4 1 -10 -2
-13 -7 -6 -8 -100 -58 -111 -58 -3 -1 -16 -7 -30 -15 -76 -42 -242 -122 -246
-117 -3 3 -5 255 -5 561 0 306 -3 556 -7 557 -23 3 -704 3 -712 1z m1699
-1627 c94 -47 175 -85 180 -85 5 0 11 -3 13 -7 2 -5 99 -55 216 -113 l212
-105 0 -1452 0 -1453 -23 -1 c-141 -4 -427 -2 -427 3 0 4 -7 5 -15 2 -22 -9
-465 -10 -465 -2 0 4 -7 5 -15 2 -24 -10 -465 -10 -465 -1 0 5 -5 5 -10 2 -13
-8 -168 -10 -176 -3 -5 6 -8 2898 -2 2903 11 10 785 394 795 394 7 1 89 -37
182 -84z"/>
<path d="M15297 11840 c-9 -4 -12 -91 -12 -365 l1 -360 364 0 364 0 1 358 c0
208 -4 361 -9 365 -12 7 -692 9 -709 2z"/>
<path d="M8330 11031 c-96 -47 -179 -90 -185 -94 -9 -7 -565 -288 -972 -491
l-183 -91 0 -2042 0 -2043 360 0 360 0 2 1818 3 1817 390 197 c215 108 394
198 398 200 8 3 12 807 5 813 -2 2 -82 -36 -178 -84z"/>
<path d="M9600 10788 c-360 -181 -659 -333 -665 -336 -5 -4 -12 -7 -15 -7 -3
-1 -46 -22 -95 -47 l-90 -46 0 -515 c0 -283 2 -517 5 -519 16 -12 339 -168
348 -168 6 0 12 -3 14 -7 4 -9 1214 -613 1228 -613 6 0 10 -4 10 -10 0 -5 4
-10 10 -10 10 0 275 -128 325 -157 17 -10 32 -18 35 -18 6 0 342 -166 350
-173 3 -2 5 -264 5 -583 l1 -579 -41 -1 c-235 -4 -345 -3 -345 3 0 4 -7 5 -15
2 -24 -10 -625 -10 -625 -1 0 5 -5 5 -11 2 -12 -8 -543 -10 -556 -2 -5 3 -8
298 -8 656 l0 651 -95 47 c-52 26 -96 51 -98 55 -2 5 -10 8 -17 8 -7 0 -122
54 -255 120 -132 66 -246 121 -253 123 -8 1 -11 -297 -12 -1183 -1 -652 1
-1191 3 -1197 3 -10 317 -13 1526 -13 l1522 0 0 1169 0 1169 -942 471 c-519
259 -947 471 -953 471 -5 0 -11 3 -13 8 -1 4 -95 53 -208 109 l-206 102 1 68
0 68 375 187 c206 103 387 193 402 199 26 11 57 -3 426 -187 l397 -199 0 -180
0 -180 344 -172 c188 -95 351 -175 360 -178 16 -5 17 33 16 577 l0 581 -32 18
c-18 10 -33 15 -33 11 0 -4 -4 -2 -8 3 -4 6 -203 108 -442 229 -239 120 -439
222 -444 227 -6 5 -18 9 -27 9 -10 0 -19 3 -21 8 -3 7 -509 263 -518 261 -3 0
-300 -149 -660 -331z"/>
<path d="M4753 10981 c-139 -70 -253 -124 -253 -121 0 3 -4 1 -8 -5 -4 -5 -36
-23 -72 -40 -36 -16 -72 -34 -80 -40 -8 -6 -75 -40 -148 -75 -74 -36 -260
-128 -415 -206 l-282 -140 -3 -2042 -2 -2042 1530 0 1530 0 0 2043 -1 2042
-422 209 c-232 116 -424 210 -427 211 -3 0 -16 7 -30 15 -26 15 -201 102 -210
105 -10 3 -115 56 -130 65 -36 22 -305 150 -315 149 -5 0 -124 -58 -262 -128z
m447 -767 c8 -3 22 -9 30 -14 8 -4 143 -72 300 -150 157 -78 286 -143 288
-145 2 -2 4 -2773 2 -2892 0 -6 -21 -13 -50 -15 -28 -1 -50 0 -50 4 0 4 -7 5
-15 2 -22 -9 -465 -10 -465 -2 0 4 -7 5 -15 2 -24 -10 -465 -10 -465 -1 0 5
-5 5 -11 2 -9 -6 -441 -10 -474 -5 -5 1 -19 3 -30 3 -11 1 -21 5 -22 10 -2 4
-3 656 -3 1450 l0 1442 163 80 c89 44 164 83 165 88 2 4 8 7 13 7 14 0 143 64
147 72 2 5 9 8 15 8 7 0 77 33 156 73 l143 72 82 -42 c44 -24 88 -45 96 -49z"/>
<path d="M13687 11079 c-26 -16 -50 -29 -52 -29 -6 1 -1398 -690 -1404 -696
-6 -5 -8 -4054 -3 -4071 3 -10 165 -13 766 -13 l763 0 391 196 c215 107 395
196 399 197 5 1 8 -86 8 -193 l0 -195 366 -3 365 -2 -1 2041 0 2041 -185 94
c-102 51 -189 94 -193 94 -5 0 -21 9 -35 19 -15 10 -31 20 -37 21 -12 4 -197
94 -216 106 -8 5 -16 9 -19 9 -3 0 -192 94 -421 208 -229 114 -423 207 -430
206 -8 0 -35 -14 -62 -30z m868 -2383 l0 -1210 -485 -244 -485 -244 -143 -1
c-78 0 -145 3 -148 6 -3 3 -17 2 -30 -3 -14 -6 -34 -6 -48 0 -13 5 -26 6 -30
3 -7 -7 -211 -7 -222 0 -5 3 -9 654 -9 1453 l0 1448 400 200 400 201 400 -200
400 -200 0 -1209z"/>
</g>
</svg>
