<?xml version="1.0" encoding="iso-8859-1"?>
<!-- Generator: Adobe Illustrator 17.0.0, SVG Export Plug-In . SVG Version: 6.00 Build 0)  -->
<!DOCTYPE svg PUBLIC "-//W3C//DTD SVG 1.1//EN" "http://www.w3.org/Graphics/SVG/1.1/DTD/svg11.dtd">
<svg version="1.1" id="Layer_1" xmlns="http://www.w3.org/2000/svg" xmlns:xlink="http://www.w3.org/1999/xlink" x="0px" y="0px"
	 width="512.13px" height="512.13px" viewBox="-49 141 512.13 512.13" style="enable-background:new -49 141 512.13 512.13;"
	 xml:space="preserve">
<path d="M207.065,141C65.43,141-49,255.298-49,397.065S65.298,653.13,207.065,653.13S463.13,538.832,463.13,397.065
	S348.702,141,207.065,141z M207.065,618.892c-122.891,0-221.828-98.937-221.828-221.828s98.938-221.828,221.828-221.828
	s221.828,98.937,221.828,221.828S329.956,618.892,207.065,618.892z"/>
<path d="M306.002,321.951L174.651,453.304l-66.523-66.522c-6.769-6.769-17.054-6.769-23.953,0c-6.769,6.769-6.769,17.053,0,23.953
	l78.498,78.498c3.385,3.385,6.769,5.077,11.977,5.077c5.077,0,8.592-1.692,11.977-5.077l143.329-143.328
	c6.769-6.769,6.769-17.053,0-23.953C323.186,315.181,312.902,315.181,306.002,321.951z"/>
</svg>
