<?xml version="1.0" encoding="utf-8"?>
<!-- Generator: Adobe Illustrator 21.0.0, SVG Export Plug-In . SVG Version: 6.00 Build 0)  -->
<svg version="1.1" id="Isolation_Mode" xmlns="http://www.w3.org/2000/svg" xmlns:xlink="http://www.w3.org/1999/xlink" x="0px"
	 y="0px" viewBox="0 0 245.8 307.3" style="enable-background:new 0 0 245.8 307.3;" xml:space="preserve">
<g>
	<path d="M122.7,0c60.2-0.1,112.5,44.2,121.5,103.6c5.6,37.2-3.7,70.6-28.2,99.4c-28.4,33.3-57,66.3-85.5,99.5
		c-5.6,6.5-9.7,6.5-15.3,0c-29-33.7-58.2-67.2-86.9-101.2C-26.4,136.4,1.8,34.8,82,7.1C95.2,2.5,108.8,0.2,122.7,0z M122.9,287.7
		c1.5-1.8,2.7-3.1,3.8-4.4c25.3-29.5,50.6-59,76.1-88.3c22.1-25.5,31.3-54.9,26.4-88.2c-8.8-59.4-64.8-100-123.9-89.6
		C64.4,24.3,35.8,48,21.9,87C8,126.1,15.6,162.3,42.4,194.1c17.6,20.8,35.5,41.3,53.3,62C104.6,266.5,113.6,276.9,122.9,287.7z"/>
	<path d="M176.7,123.2c-0.5,30.1-24.9,54-54.7,53.5c-29.5-0.5-53.4-25.1-52.9-54.5c0.5-29.7,25.1-53.7,54.7-53.1
		C153.2,69.7,177.2,94.1,176.7,123.2z M123,161.2c21.1,0,38.2-16.9,38.3-38c0.1-21.6-16.9-38.6-38.4-38.6c-21.3,0-38.3,17-38.2,38.4
		C84.6,144.3,101.6,161.2,123,161.2z"/>
</g>
</svg>
