<?xml version="1.0" encoding="iso-8859-1"?>
<!-- Generator: Adobe Illustrator 17.0.0, SVG Export Plug-In . SVG Version: 6.00 Build 0)  -->
<!DOCTYPE svg PUBLIC "-//W3C//DTD SVG 1.1//EN" "http://www.w3.org/Graphics/SVG/1.1/DTD/svg11.dtd">
<svg version="1.1" id="Layer_1" xmlns="http://www.w3.org/2000/svg" xmlns:xlink="http://www.w3.org/1999/xlink" x="0px" y="0px"
	 width="359.97px" height="359.975px" viewBox="0 0 359.97 359.975" style="enable-background:new 0 0 359.97 359.975;"
	 xml:space="preserve">
<g>
	<path d="M71.978,287.971c-10.157,0-19.768,0.016-29.378-0.003c-25.058-0.051-42.581-17.623-42.587-42.766
		c-0.017-67.479-0.017-134.958,0-202.436C0.019,17.563,17.47,0.021,42.583,0.016c91.596-0.021,183.192-0.021,274.789,0
		c25.092,0.006,42.576,17.571,42.583,42.753c0.019,67.479,0.019,134.958,0,202.436c-0.007,25.322-17.534,42.754-42.964,42.762
		c-48.61,0.015-97.219,0.026-145.829-0.051c-2.827-0.004-4.872,0.798-6.952,2.716c-23.519,21.681-47.148,43.242-70.684,64.904
		c-4.228,3.891-8.81,5.789-14.316,3.356c-5.475-2.419-7.287-6.998-7.253-12.787c0.106-17.869,0.028-35.738,0.021-53.608
		C71.977,291.146,71.978,289.795,71.978,287.971z M95.995,320.602c1.812-1.613,2.935-2.587,4.031-3.592
		c17.498-16.043,35.043-32.035,52.449-48.178c3.72-3.45,7.734-4.953,12.813-4.942c50.73,0.112,101.461,0.084,152.192,0.079
		c11.602-0.001,18.478-6.82,18.48-18.344c0.013-67.724,0.012-135.448,0.001-203.172c-0.002-11.542-6.881-18.441-18.392-18.443
		C225.853,24,134.138,24,42.423,24.009c-11.582,0.001-18.412,6.826-18.414,18.397c-0.01,67.724-0.01,135.448,0,203.172
		c0.002,11.515,6.894,18.374,18.445,18.391c13.62,0.02,27.24-0.034,40.859,0.021c7.693,0.031,12.563,4.978,12.677,12.698
		c0.022,1.499,0.004,2.999,0.004,4.498C95.995,294.023,95.995,306.861,95.995,320.602z"/>
	<path d="M180.403,71.999c27.597,0,55.195-0.014,82.792,0.011c6.099,0.005,10.524,3.163,12.242,8.55
		c1.549,4.859-0.143,10.375-4.623,13.129c-2.119,1.303-4.866,2.225-7.332,2.23c-55.694,0.116-111.388,0.097-167.083,0.053
		c-7.045-0.006-12.321-5.195-12.392-11.855c-0.073-6.871,5.193-12.087,12.479-12.099C124.459,71.972,152.431,71.999,180.403,71.999z
		"/>
	<path d="M179.959,131.991c27.723,0,55.446-0.027,83.168,0.015c9.284,0.014,15.41,8.475,11.923,16.529
		c-2.2,5.081-6.295,7.479-11.888,7.469c-20.105-0.035-40.21,0.003-60.316,0.002c-34.841-0.002-69.681-0.008-104.522-0.03
		c-1.617-0.001-3.279,0.044-4.841-0.294c-6.027-1.305-10.093-6.997-9.447-13.011c0.661-6.165,5.752-10.664,12.38-10.68
		c20.605-0.051,41.209-0.02,61.814-0.02c7.243,0,14.486,0,21.729,0C179.959,131.978,179.959,131.985,179.959,131.991z"/>
	<path d="M180.112,191.984c27.744,0,55.489-0.035,83.233,0.02c9.097,0.018,14.982,8.341,11.77,16.41
		c-1.869,4.694-6.234,7.542-11.86,7.553c-18.246,0.038-36.493,0.032-54.739,0.031c-37.117-0.002-74.235,0.003-111.352-0.03
		c-9.662-0.009-15.802-8.309-12.213-16.582c2.291-5.282,6.606-7.456,12.303-7.446c27.619,0.051,55.239,0.023,82.858,0.023
		C180.112,191.971,180.112,191.977,180.112,191.984z"/>
</g>
</svg>
