<?xml version="1.0" encoding="utf-8"?>
<!-- Generator: Adobe Illustrator 17.0.0, SVG Export Plug-In . SVG Version: 6.00 Build 0)  -->
<!DOCTYPE svg PUBLIC "-//W3C//DTD SVG 1.1//EN" "http://www.w3.org/Graphics/SVG/1.1/DTD/svg11.dtd">
<svg version="1.1" id="Layer_1" xmlns="http://www.w3.org/2000/svg" xmlns:xlink="http://www.w3.org/1999/xlink" x="0px" y="0px"
	 width="340.8px" height="389.76px" viewBox="0 0 340.8 389.76" enable-background="new 0 0 340.8 389.76" xml:space="preserve">
<g>
	<g>
		<defs>
			<rect id="SVGID_1_" width="340.8" height="389.76"/>
		</defs>
		<clipPath id="SVGID_2_">
			<use xlink:href="#SVGID_1_"  overflow="visible"/>
		</clipPath>
		<path clip-path="url(#SVGID_2_)" d="M335.523,95.362l-158.32-94c-2.961-1.762-6.641-1.762-9.601-0.082L7.121,91.362
			c-2.957,1.68-4.879,4.797-4.879,8.238L0.004,283.678c-0.082,3.442,1.758,6.563,4.637,8.321l159.121,95.441
			c1.519,0.879,3.199,1.359,4.961,1.359c1.601,0,3.199-0.398,4.718-1.199l160.563-90.082c3.039-1.68,4.879-4.879,4.879-8.316
			l1.359-185.524C340.242,100.241,338.484,97.042,335.523,95.362L335.523,95.362z M160.484,363.12L19.203,278.401l2-161.441
			l139.281,82.242V363.12z M170.242,182.639l-139.68-82.398l141.602-79.52l139.52,82.797L170.242,182.639z M319.684,283.44
			l-140,78.559V199.28l141.199-78.961L319.684,283.44z M319.684,283.44"/>
	</g>
	<path d="M105.844,239.28c1.597,0,3.199-0.399,4.718-1.199c4.641-2.641,6.239-8.481,3.68-13.039
		c-2.558-4.641-8.398-6.243-13.039-3.68c-4.641,2.558-6.242,8.398-3.68,13.039C99.281,237.518,102.484,239.28,105.844,239.28
		L105.844,239.28z M105.844,239.28"/>
	<path d="M73.762,257.362c1.601,0,3.199-0.402,4.722-1.203c4.637-2.559,6.239-8.481,3.68-13.039
		c-2.562-4.641-8.48-6.239-13.043-3.68c-4.637,2.559-6.238,8.48-3.68,13.039C67.121,255.6,70.402,257.362,73.762,257.362
		L73.762,257.362z M73.762,257.362"/>
	<path d="M138.004,221.28c1.598,0,3.199-0.399,4.719-1.199c4.64-2.563,6.238-8.481,3.679-13.039
		c-2.558-4.641-8.48-6.243-13.039-3.68c-4.64,2.558-6.242,8.476-3.679,13.039C131.363,219.518,134.641,221.28,138.004,221.28
		L138.004,221.28z M138.004,221.28"/>
	<path d="M41.684,275.362c1.597,0,3.199-0.402,4.718-1.203c4.641-2.641,6.239-8.481,3.68-13.039
		c-2.641-4.641-8.48-6.239-13.039-3.68c-4.641,2.559-6.242,8.48-3.68,13.039C35.043,273.6,38.324,275.362,41.684,275.362
		L41.684,275.362z M41.684,275.362"/>
	<path d="M260.164,258.319c1.52,0.883,3.199,1.359,4.879,1.359c3.281,0,6.48-1.679,8.238-4.718
		c2.723-4.559,1.203-10.481-3.359-13.122c-4.559-2.718-10.481-1.199-13.199,3.364C254.082,249.76,255.602,255.6,260.164,258.319
		L260.164,258.319z M260.164,258.319"/>
	<path d="M228.484,239.518c1.52,0.883,3.2,1.363,4.879,1.363c3.278,0,6.481-1.679,8.239-4.722c2.722-4.559,1.199-10.481-3.36-13.117
		c-4.558-2.723-10.48-1.204-13.121,3.359C222.484,230.96,223.922,236.799,228.484,239.518L228.484,239.518z M228.484,239.518"/>
	<path d="M196.883,220.721c1.519,0.879,3.199,1.36,4.879,1.36c3.281,0,6.48-1.68,8.242-4.719c2.719-4.563,1.199-10.481-3.363-13.121
		c-4.559-2.723-10.477-1.199-13.118,3.359C190.801,212.159,192.324,217.999,196.883,220.721L196.883,220.721z M196.883,220.721"/>
	<path d="M291.844,277.12c1.519,0.879,3.199,1.359,4.879,1.359c3.281,0,6.48-1.68,8.238-4.719c2.723-4.558,1.203-10.48-3.359-13.199
		c-4.559-2.723-10.481-1.199-13.118,3.359C285.762,268.479,287.281,274.401,291.844,277.12L291.844,277.12z M291.844,277.12"/>
	<path d="M171.121,110.479c-5.277-0.078-9.68,4.16-9.68,9.52c-0.078,5.281,4.161,9.679,9.442,9.679h0.16
		c5.281,0,9.519-4.238,9.598-9.519C180.641,114.881,176.402,110.479,171.121,110.479L171.121,110.479z M171.121,110.479"/>
	<path d="M171.523,73.6c-5.281-0.082-9.679,4.16-9.679,9.442c-0.082,5.277,4.16,9.679,9.519,9.757h0.078
		c5.282,0,9.52-4.238,9.602-9.519C181.121,78.081,176.883,73.678,171.523,73.6L171.523,73.6z M171.523,73.6"/>
	<path d="M171.762,55.999h0.16c5.281,0,9.519-4.239,9.601-9.52c0.079-5.277-4.16-9.68-9.519-9.68
		c-5.281-0.078-9.68,4.161-9.68,9.442C162.242,51.6,166.484,55.92,171.762,55.999L171.762,55.999z M171.762,55.999"/>
	<path d="M170.641,147.28c-5.278-0.078-9.68,4.16-9.68,9.441c-0.078,5.278,4.16,9.68,9.523,9.758h0.078
		c5.282,0,9.52-4.238,9.602-9.519C180.164,151.678,175.922,147.362,170.641,147.28L170.641,147.28z M170.641,147.28"/>
</g>
</svg>
