<?xml version="1.0" encoding="utf-8"?>
<!-- Generator: Adobe Illustrator 21.0.0, SVG Export Plug-In . SVG Version: 6.00 Build 0)  -->
<svg version="1.1" id="katman_1" xmlns="http://www.w3.org/2000/svg" xmlns:xlink="http://www.w3.org/1999/xlink" x="0px" y="0px"
	 viewBox="0 0 384 384" style="enable-background:new 0 0 384 384;" xml:space="preserve">
<g>
	<path d="M360,96H152c-13.2,0-24-10.8-24-24V24c0-13.2,10.8-24,24-24h208c13.2,0,24,10.8,24,24v48C384,85.2,373.2,96,360,96L360,96z
		 M152,16c-4.4,0-8,3.6-8,8v48c0,4.4,3.6,8,8,8h208c4.4,0,8-3.6,8-8V24c0-4.4-3.6-8-8-8H152z M152,16"/>
	<path d="M48,96C21.5,96,0,74.5,0,48S21.5,0,48,0c26.5,0,48,21.5,48,48S74.5,96,48,96L48,96z M48,16c-17.6,0-32,14.4-32,32
		c0,17.6,14.4,32,32,32s32-14.4,32-32C80,30.4,65.6,16,48,16L48,16z M48,16"/>
	<path d="M376,144H216c-4.4,0-8-3.6-8-8s3.6-8,8-8h160c4.4,0,8,3.6,8,8S380.4,144,376,144L376,144z M376,144"/>
	<path d="M376,192H216c-4.4,0-8-3.6-8-8s3.6-8,8-8h160c4.4,0,8,3.6,8,8S380.4,192,376,192L376,192z M376,192"/>
	<path d="M376,240H216c-4.4,0-8-3.6-8-8c0-4.4,3.6-8,8-8h160c4.4,0,8,3.6,8,8C384,236.4,380.4,240,376,240L376,240z M376,240"/>
	<path d="M376,288H216c-4.4,0-8-3.6-8-8s3.6-8,8-8h160c4.4,0,8,3.6,8,8S380.4,288,376,288L376,288z M376,288"/>
	<path d="M376,336H216c-4.4,0-8-3.6-8-8s3.6-8,8-8h160c4.4,0,8,3.6,8,8S380.4,336,376,336L376,336z M376,336"/>
	<path d="M376,384H216c-4.4,0-8-3.6-8-8s3.6-8,8-8h160c4.4,0,8,3.6,8,8S380.4,384,376,384L376,384z M376,384"/>
	<path d="M152,240H24c-13.2,0-24-10.8-24-24v-64c0-13.2,10.8-24,24-24h128c13.2,0,24,10.8,24,24v64C176,229.2,165.2,240,152,240
		L152,240z M24,144c-4.4,0-8,3.6-8,8v64c0,4.4,3.6,8,8,8h128c4.4,0,8-3.6,8-8v-64c0-4.4-3.6-8-8-8H24z M24,144"/>
	<path d="M152,384H24c-13.2,0-24-10.8-24-24v-64c0-13.2,10.8-24,24-24h128c13.2,0,24,10.8,24,24v64C176,373.2,165.2,384,152,384
		L152,384z M24,288c-4.4,0-8,3.6-8,8v64c0,4.4,3.6,8,8,8h128c4.4,0,8-3.6,8-8v-64c0-4.4-3.6-8-8-8H24z M24,288"/>
</g>
</svg>
