<?xml version="1.0" encoding="iso-8859-1"?>
<!-- Generator: Adobe Illustrator 17.0.0, SVG Export Plug-In . SVG Version: 6.00 Build 0)  -->
<!DOCTYPE svg PUBLIC "-//W3C//DTD SVG 1.1//EN" "http://www.w3.org/Graphics/SVG/1.1/DTD/svg11.dtd">
<svg version="1.1" id="Isolation_Mode" xmlns="http://www.w3.org/2000/svg" xmlns:xlink="http://www.w3.org/1999/xlink" x="0px"
	 y="0px" width="380.33px" height="370.226px" viewBox="0 0 380.33 370.226" style="enable-background:new 0 0 380.33 370.226;"
	 xml:space="preserve">
<g>
	<path d="M0,30.763c0.599-2.001,1.15-4.019,1.806-6.002C6.788,9.708,20.441,0.036,37.001,0.022
		c48.867-0.04,97.735-0.014,146.603-0.012c29.995,0.001,59.991-0.001,89.986,0.009c23.127,0.007,38.36,15.145,38.367,38.159
		c0.014,46.493,0.01,92.986-0.017,139.478c-0.001,1.855-0.05,3.782-0.528,5.553c-1.547,5.736-7.023,9.372-12.787,8.716
		c-5.732-0.652-10.409-5.465-10.599-11.322c-0.198-6.118-0.081-12.247-0.08-18.371c0.003-41.244,0.013-82.487,0.017-123.731
		c0.001-9.954-4.483-14.486-14.328-14.487c-78.488-0.002-156.976-0.002-235.464,0c-9.717,0-14.172,4.471-14.172,14.225
		c-0.003,86.487-0.003,172.973,0,259.46c0,9.697,4.532,14.275,14.144,14.276c58.491,0.004,116.982,0,175.473,0.013
		c1.618,0,3.281-0.05,4.847,0.283c6.02,1.277,10.115,7.015,9.442,13.021c-0.674,6.023-5.699,10.608-12.051,10.651
		c-14.122,0.095-28.245,0.05-42.368,0.051c-44.743,0.003-89.486,0.003-134.229,0.001c-20.978-0.001-33.51-9.767-38.795-30.205
		c-0.055-0.213-0.303-0.375-0.461-0.561C0,213.74,0,122.252,0,30.763z"/>
	<path d="M156.136,48.011c27.362,0,54.724-0.01,82.086,0.004c15.758,0.008,25.73,9.98,25.739,25.763
		c0.018,30.86,0.02,61.721-0.001,92.581c-0.011,15.564-10.009,25.621-25.495,25.626c-54.974,0.017-109.948,0.017-164.922,0
		C58.037,191.982,48.009,181.929,48,166.402c-0.019-30.985-0.021-61.971,0.001-92.956c0.011-15.305,10.07-25.415,25.299-25.428
		C100.912,47.994,128.524,48.011,156.136,48.011z M72.27,72.184c0,32.052,0,63.823,0,95.518c56.039,0,111.799,0,167.486,0
		c0-31.977,0-63.66,0-95.518C183.873,72.184,128.202,72.184,72.27,72.184z"/>
	<path d="M252.172,265.673c6.246-0.002,12.506-0.246,18.733,0.095c3.46,0.189,4.692-1.145,5.643-4.229
		c3.782-12.273,7.734-24.496,11.826-36.669c2.837-8.44,12.003-11.711,18.532-6.439c2.258,1.823,3.969,4.836,4.945,7.647
		c4.212,12.131,8.141,24.363,11.969,36.622c0.745,2.385,1.826,3.039,4.191,3.021c13.116-0.101,26.234-0.124,39.35-0.017
		c8.419,0.069,13.692,5.714,12.887,13.507c-0.401,3.88-2.56,6.635-5.635,8.863c-10.518,7.616-20.954,15.347-31.539,22.868
		c-2.198,1.561-2.734,2.879-1.851,5.493c4.234,12.521,8.322,25.092,12.297,37.698c2.468,7.825-2.097,15.369-10,15.817
		c-3.058,0.173-6.691-1.151-9.283-2.929c-10.601-7.273-20.964-14.901-31.264-22.6c-2.358-1.762-3.839-1.602-6.105,0.088
		c-10.31,7.685-20.748,15.2-31.186,22.711c-5.351,3.85-10.741,3.975-15.252,0.546c-4.32-3.284-5.739-8.237-3.855-14.133
		c3.985-12.472,7.984-24.941,12.139-37.357c0.803-2.398,0.503-3.686-1.647-5.207c-10.803-7.645-21.516-15.421-32.154-23.294
		c-6.924-5.124-7.305-14.816-0.597-19.441c2.304-1.588,5.518-2.379,8.372-2.54C239.166,265.424,245.676,265.674,252.172,265.673z
		 M318.33,325.956c0.201-0.191,0.401-0.382,0.602-0.574c-1.09-3.429-2.175-6.86-3.272-10.288
		c-2.901-9.065-1.745-12.547,6.035-18.216c2.914-2.123,5.81-4.273,8.714-6.41c-4.023-0.801-7.62-0.799-11.217-0.801
		c-9.551-0.008-12.549-2.203-15.508-11.305c-1.117-3.435-2.277-6.856-3.418-10.284c-1.935,3.827-3.097,7.5-4.296,11.161
		c-2.6,7.938-5.985,10.408-14.262,10.427c-3.942,0.009-7.884,0.002-11.825,0.002c2.764,3.055,5.81,5.303,8.875,7.526
		c7.068,5.127,8.33,9.026,5.652,17.405c-1.177,3.681-2.301,7.379-3.752,12.043c4.374-3.152,7.788-5.648,11.239-8.091
		c5.791-4.099,10.418-4.102,16.166-0.013C311.504,320.986,314.909,323.482,318.33,325.956z"/>
	<path d="M155.99,239.987c-31.742,0-63.484,0.031-95.226-0.02c-9.329-0.015-15.335-8.492-11.798-16.614
		c2.16-4.959,6.165-7.358,11.582-7.362c9.373-0.006,18.745-0.014,28.118-0.014c53.986,0.003,107.972,0,161.959,0.02
		c9.654,0.003,15.806,8.166,12.475,16.457c-1.924,4.79-6.303,7.52-12.259,7.525c-23.619,0.017-47.238,0.007-70.857,0.008
		C171.986,239.987,163.988,239.987,155.99,239.987z"/>
	<path d="M125.983,263.985c21.869,0,43.737-0.036,65.606,0.022c6.601,0.018,11.703,4.602,12.328,10.761
		c0.599,5.909-3.297,11.416-9.186,12.851c-1.196,0.291-2.473,0.347-3.712,0.348c-43.362,0.017-86.725,0.032-130.087,0
		c-9.377-0.007-15.37-8.282-12.07-16.48c1.94-4.819,6.25-7.49,12.265-7.495C82.746,263.975,104.364,263.985,125.983,263.985z"/>
</g>
</svg>
