<?xml version="1.0" encoding="iso-8859-1"?>
<!-- Generator: Adobe Illustrator 17.0.0, SVG Export Plug-In . SVG Version: 6.00 Build 0)  -->
<!DOCTYPE svg PUBLIC "-//W3C//DTD SVG 1.1//EN" "http://www.w3.org/Graphics/SVG/1.1/DTD/svg11.dtd">
<svg version="1.1" id="Capa_1" xmlns="http://www.w3.org/2000/svg" xmlns:xlink="http://www.w3.org/1999/xlink" x="0px" y="0px"
	 width="477.873px" height="477.867px" viewBox="-31.933 158.066 477.873 477.867"
	 style="enable-background:new -31.933 158.066 477.873 477.867;" xml:space="preserve">
<g>
	<path d="M19.267,635.933h307.2c28.277,0,51.2-22.923,51.2-51.2V414.067c0-9.426-7.641-17.067-17.067-17.067
		c-9.426,0-17.067,7.641-17.067,17.067v170.667c0,9.426-7.641,17.067-17.067,17.067h-307.2c-9.426,0-17.067-7.641-17.067-17.067
		V243.4c0-9.426,7.641-17.067,17.067-17.067h204.8c9.426,0,17.067-7.641,17.067-17.067s-7.641-17.067-17.067-17.067h-204.8
		c-28.277,0-51.2,22.923-51.2,51.2v341.333C-31.933,613.01-9.01,635.933,19.267,635.933z"/>
	<path d="M380.602,158.067c-17.341-0.05-33.979,6.846-46.199,19.149L109.601,402.001c-1.865,1.879-3.272,4.163-4.113,6.673
		l-34.133,102.4c-2.979,8.943,1.856,18.607,10.799,21.585c1.735,0.578,3.551,0.873,5.38,0.875c1.832-0.003,3.653-0.297,5.393-0.87
		l102.4-34.133c2.515-0.84,4.8-2.254,6.673-4.13l224.802-224.802c25.515-25.512,25.518-66.877,0.007-92.392
		C414.554,164.949,397.933,158.065,380.602,158.067z M402.669,245.482L180.803,467.349l-66.287,22.135l22.067-66.202
		l221.952-221.867c12.202-12.178,31.967-12.158,44.145,0.044c5.817,5.829,9.095,13.72,9.12,21.955
		C411.821,231.694,408.534,239.638,402.669,245.482z"/>
</g>
</svg>
