<?xml version="1.0" encoding="utf-8"?>
<!-- Generator: Adobe Illustrator 21.0.0, SVG Export Plug-In . SVG Version: 6.00 Build 0)  -->
<svg version="1.1" id="Layer_1" xmlns="http://www.w3.org/2000/svg" xmlns:xlink="http://www.w3.org/1999/xlink" x="0px" y="0px"
	 viewBox="0 0 800 325" style="enable-background:new 0 0 800 325;" xml:space="preserve">
<style type="text/css">
	.st0{fill:#FFFFFF;}
</style>
<g>
	<g>
		<g>
			<g>
				<g>
					<path class="st0" d="M100,35l7.6-11c1.5,0.6,3.2,1,4.9,1c6.9,0,12.5-5.6,12.5-12.5S119.4,0,112.5,0S100,5.6,100,12.5
						c0,3.4,1.3,6.4,3.5,8.7l-7.6,11c-9.7-6.1-21.1-9.7-33.4-9.7s-23.7,3.6-33.4,9.7l-7.6-11c2.2-2.2,3.5-5.3,3.5-8.7
						C25,5.6,19.4,0,12.5,0S0,5.6,0,12.5S5.6,25,12.5,25c1.7,0,3.4-0.4,4.9-1L25,35C9.8,46.4,0,64.6,0,85c0,34.5,28,62.5,62.5,62.5
						S125,119.5,125,85C125,64.6,115.2,46.4,100,35z M62.5,122.5C41.8,122.5,25,105.7,25,85s16.8-37.5,37.5-37.5S100,64.3,100,85
						S83.2,122.5,62.5,122.5z"/>
				</g>
			</g>
			<g>
				<g>
					<path class="st0" d="M62.5,165C26.7,165,0,213.9,0,257.7c0,20.9,6.3,38.3,18.3,50.2C29.5,319.1,44.8,325,62.5,325
						s33-5.9,44.2-17.1c12-12,18.3-29.4,18.3-50.2C125,213.9,98.3,165,62.5,165z M62.5,300C38.7,300,25,284.6,25,257.7
						c0-32.9,19.3-67.7,37.5-67.7s37.5,34.8,37.5,67.7C100,284.6,86.3,300,62.5,300z"/>
				</g>
			</g>
		</g>
	</g>
	<g>
		<polygon class="st0" points="800,127.5 760,127.5 760,102.5 740,102.5 740,127.5 740,147.5 740,202.5 760,202.5 760,147.5 
			800,147.5 		"/>
		<path class="st0" d="M580,102.5v10c-8.4-6.3-18.8-10-30-10c-27.6,0-50,22.4-50,50s22.4,50,50,50c11.2,0,21.6-3.7,30-10v10h20v-80
			h10v-20h-10H580z M550,182.5c-16.5,0-30-13.5-30-30s13.5-30,30-30s30,13.5,30,30S566.5,182.5,550,182.5z"/>
		<path class="st0" d="M460,102.5v10c-8.4-6.3-18.8-10-30-10c-27.6,0-50,22.4-50,50s22.4,50,50,50c11.2,0,21.6-3.7,30-10v20
			c0,16.5-13.5,30-30,30s-30-13.5-30-30h-20c0,27.6,22.4,50,50,50s50-22.4,50-50v-90h10v-20h-10H460z M430,182.5
			c-16.5,0-30-13.5-30-30s13.5-30,30-30s30,13.5,30,30S446.5,182.5,430,182.5z"/>
		<path class="st0" d="M300,102.5v10c-8.4-6.3-18.8-10-30-10c-27.6,0-50,22.4-50,50s22.4,50,50,50c11.2,0,21.6-3.7,30-10v20
			c0,16.5-13.5,30-30,30s-30-13.5-30-30h-20c0,27.6,22.4,50,50,50s50-22.4,50-50v-90h10v-20h-10H300z M270,182.5
			c-16.5,0-30-13.5-30-30s13.5-30,30-30s30,13.5,30,30S286.5,182.5,270,182.5z"/>
		<polygon class="st0" points="342.5,102.5 342.5,122.5 342.5,202.5 362.5,202.5 362.5,122.5 372.5,122.5 372.5,102.5 362.5,102.5 
					"/>
		<path class="st0" d="M670,101.8c-27.6,0-50,22.4-50,50v50.8h20v-50.8c0-16.5,13.5-30,30-30s30,13.5,30,30v50.8h20v-50.8
			C720,124.2,697.6,101.8,670,101.8z"/>
		<circle class="st0" cx="355" cy="75" r="12.5"/>
	</g>
	<g>
		<path class="st0" d="M519,222.5v2.7h-8v37.3h-3v-37.3h-8v-2.7H519z"/>
		<path class="st0" d="M529.2,222.5H546v2.7h-13.7v15.6h11.9v2.7h-11.9v16.2H546v2.7h-16.7V222.5z"/>
		<path class="st0" d="M557.4,230.7c0-5.5,3.4-8.2,10.2-8.2c2.3,0,4.6,0.3,6.8,1v2.8c-2.3-0.7-4.7-1-7.2-1s-4.2,0.5-5.3,1.4
			c-1.1,0.9-1.6,2.3-1.6,4v23.6c0,1.8,0.5,3.1,1.6,4c1.1,0.9,2.9,1.4,5.4,1.4c2.5,0,4.9-0.3,7.2-1v2.8c-2,0.6-4.3,1-7,1
			c-6.8,0-10.2-2.7-10.2-8.2V230.7z"/>
		<path class="st0" d="M602.9,222.5h3.1v40h-3.1v-18.4h-14.2v18.4h-3v-40h3v18.8h14.2V222.5z"/>
		<path class="st0" d="M637.9,257.4l-0.1-12.2v-22.7h3v40h-4c-7.7-19.6-12.3-30.9-13.8-34.8l0.1,11.9v22.9h-3v-40h3.9
			C632.8,244.7,637.4,256.1,637.9,257.4z"/>
		<path class="st0" d="M655.3,231.8c0-2.7,0.8-5,2.4-6.7c1.6-1.7,4-2.6,7.2-2.6c3.2,0,5.6,0.9,7.2,2.6c1.6,1.7,2.4,4,2.4,6.7v21.5
			c0,2.7-0.8,5-2.4,6.7c-1.6,1.7-4,2.6-7.2,2.6c-3.2,0-5.6-0.9-7.2-2.6c-1.6-1.7-2.4-3.9-2.4-6.7V231.8z M671.6,231.8
			c0-4.4-2.2-6.5-6.6-6.5c-4.4,0-6.6,2.2-6.6,6.5v21.5c0,4.4,2.2,6.5,6.6,6.5c4.4,0,6.6-2.2,6.6-6.5V231.8z"/>
		<path class="st0" d="M689.1,222.5h3v37.3h12.7v2.7h-15.7V222.5z"/>
		<path class="st0" d="M716.1,231.8c0-2.7,0.8-5,2.4-6.7c1.6-1.7,4-2.6,7.2-2.6c3.2,0,5.6,0.9,7.2,2.6c1.6,1.7,2.4,4,2.4,6.7v21.5
			c0,2.7-0.8,5-2.4,6.7c-1.6,1.7-4,2.6-7.2,2.6c-3.2,0-5.6-0.9-7.2-2.6c-1.6-1.7-2.4-3.9-2.4-6.7V231.8z M732.4,231.8
			c0-4.4-2.2-6.5-6.6-6.5c-4.4,0-6.6,2.2-6.6,6.5v21.5c0,4.4,2.2,6.5,6.6,6.5c4.4,0,6.6-2.2,6.6-6.5V231.8z"/>
		<path class="st0" d="M750.3,231c0-5.7,3.5-8.5,10.5-8.5c2.4,0,4.8,0.3,7,1v3c-2.4-0.8-4.8-1.2-7.3-1.2c-4.8,0-7.2,1.9-7.2,5.8
			v23.3c0,3.6,2.1,5.5,6.2,5.5c2.9,0,5-0.5,6.4-1.5v-15.5h3v17.3c-2.7,1.6-5.6,2.4-8.8,2.4s-5.6-0.6-7.3-1.9
			c-1.7-1.3-2.6-3.4-2.6-6.2V231z"/>
		<path class="st0" d="M790,262.5h-3v-13.6l-10-26.4h3.2c3.8,9.9,6,15.9,6.7,17.9c0.7,2,1.3,3.5,1.7,4.7c0.4-1.1,1-2.8,1.8-5.1
			c1.8-5,4-10.8,6.5-17.5h3.2l-10,26.4V262.5z"/>
	</g>
</g>
</svg>
