<?xml version="1.0" encoding="utf-8"?>
<!-- Generator: Adobe Illustrator 21.0.0, SVG Export Plug-In . SVG Version: 6.00 Build 0)  -->
<svg version="1.1" id="katman_1" xmlns="http://www.w3.org/2000/svg" xmlns:xlink="http://www.w3.org/1999/xlink" x="0px" y="0px" viewBox="0 0 363.8 349" style="enable-background:new 0 0 363.8 349;" xml:space="preserve">
	<style type="text/css">
	.st0{clip-path:url(#SVGID_2_);}
</style>
	<g>
		<g>
			<defs>
				<rect id="SVGID_1_" width="363.8" height="349" />
			</defs>
			<clipPath id="SVGID_2_">
				<use xlink:href="#SVGID_1_" style="overflow:visible;" />
			</clipPath>
			<path class="st0" d="M261.3,0.6c-31,0-60,14-79.3,37.5c-19.3-23.5-48.3-37.5-79.3-37.5C46.1,0.6,0,46.6,0,103.2
			c0,44.3,26.4,95.6,78.6,152.4c40.1,43.7,83.8,77.6,96.2,86.9l7.2,5.4l7.2-5.4c12.4-9.3,56.1-43.2,96.2-86.9
			c52.1-56.8,78.6-108.1,78.6-152.4C364,46.6,317.9,0.6,261.3,0.6L261.3,0.6z M267.7,239.5c-33,36-68.5,65-85.7,78.4
			c-17.2-13.4-52.7-42.5-85.7-78.4C49,188,24,140.9,24,103.2c0-43.4,35.3-78.7,78.7-78.7c28.6,0,54.9,15.6,68.8,40.6L182,84.1
			l10.5-18.9c13.9-25.1,40.3-40.6,68.8-40.6c43.4,0,78.7,35.3,78.7,78.7C340,140.9,315,188,267.7,239.5L267.7,239.5z M267.7,239.5" />
		</g>
	</g>
</svg>