<?xml version="1.0" encoding="iso-8859-1"?>
<!-- Generator: Adobe Illustrator 17.0.0, SVG Export Plug-In . SVG Version: 6.00 Build 0)  -->
<!DOCTYPE svg PUBLIC "-//W3C//DTD SVG 1.1//EN" "http://www.w3.org/Graphics/SVG/1.1/DTD/svg11.dtd">
<svg version="1.1" id="Layer_1" xmlns="http://www.w3.org/2000/svg" xmlns:xlink="http://www.w3.org/1999/xlink" x="0px" y="0px"
	 width="388.958px" height="372.96px" viewBox="0 0 388.958 372.96" style="enable-background:new 0 0 388.958 372.96;"
	 xml:space="preserve">
<g>
	<g>
		<defs>
			<rect id="SVGID_1_" x="0.001" width="388.8" height="372.96"/>
		</defs>
		<clipPath id="SVGID_2_">
			<use xlink:href="#SVGID_1_"  style="overflow:visible;"/>
		</clipPath>
		<path style="clip-path:url(#SVGID_2_);" d="M385.368,168.321L202.325,4.641c-0.316-0.32-0.636-0.562-1.039-0.8
			c-4-3.84-10.398-4-14.64-0.243L3.606,167.278c-4.48,4-4.8,10.801-0.878,15.281c2.16,2.403,5.121,3.602,8.078,3.602
			c2.562,0,5.121-0.883,7.203-2.723l32.957-29.519v190.883c0,14.957,12.16,27.199,27.203,27.199h57.758
			c14.082,0,25.519-11.442,25.519-25.52v-97.043c0-2.16,1.762-3.918,3.922-3.918h58.321c2.16,0,3.917,1.758,3.917,3.918v97.043
			c0,14.078,11.442,25.52,25.52,25.52h57.762c15.199,0,27.199-14.961,27.199-34.082V154.962l32.961,29.519
			c2.078,1.84,4.641,2.719,7.199,2.719c2.961,0,5.922-1.199,8.078-3.602C390.169,179.122,389.767,172.321,385.368,168.321
			L385.368,168.321z M316.407,221.681v116.078c0,7.761-3.84,12.48-5.601,12.48h-57.758c-2.16,0-3.922-1.758-3.922-3.918v-96.883
			c0-14.078-11.437-25.519-25.52-25.519h-58.32c-14.078,0-25.519,11.441-25.519,25.519v97.043c0,2.16-1.758,3.918-3.918,3.918
			H78.087c-3.039,0-5.602-2.48-5.602-5.597V134.559l121.442-108.48l122.48,109.519V221.681z M316.407,221.681"/>
	</g>
</g>
</svg>
