<?xml version="1.0" encoding="iso-8859-1"?>
<!-- Generator: Adobe Illustrator 17.0.0, SVG Export Plug-In . SVG Version: 6.00 Build 0)  -->
<!DOCTYPE svg PUBLIC "-//W3C//DTD SVG 1.1//EN" "http://www.w3.org/Graphics/SVG/1.1/DTD/svg11.dtd">
<svg version="1.1" id="Layer_1" xmlns="http://www.w3.org/2000/svg" xmlns:xlink="http://www.w3.org/1999/xlink" x="0px" y="0px"
	 width="330px" height="384px" viewBox="0 0 330 384" style="enable-background:new 0 0 330 384;" xml:space="preserve">
<g>
	<path d="M165,137.082c-9.535,0-16.32,4.027-16.32,9.961v80.754c0,5.086,6.785,10.176,16.32,10.176
		c9.117,0,16.535-5.09,16.535-10.176v-80.754C181.535,141.109,174.117,137.082,165,137.082L165,137.082z M165,137.082"/>
	<path d="M165,87.27c-9.75,0-17.379,6.996-17.379,15.05c0,8.055,7.629,15.262,17.379,15.262c9.539,0,17.172-7.207,17.172-15.262
		C182.172,94.266,174.539,87.27,165,87.27L165,87.27z M165,87.27"/>
	<path d="M165,0C73.797,0,0,73.762,0,164.906c0,74.422,49,136.219,115.062,157.207l37.524,55.309
		C155.379,381.535,160.027,384,165,384c4.973,0,9.621-2.465,12.414-6.578l37.524-55.309C281.031,301.113,330,239.297,330,164.906
		C330,73.703,256.141,0,165,0L165,0z M201.484,294.824c-3.418,0.957-6.382,3.09-8.375,6.024L165,342.281l-28.109-41.429
		c-1.993-2.938-4.957-5.071-8.375-6.028C72.281,279.102,30,227.387,30,164.906C30,90.516,90.562,30,165,30s135,60.516,135,134.906
		C300,227.449,257.656,279.117,201.484,294.824L201.484,294.824z M201.484,294.824"/>
</g>
</svg>
