<?xml version="1.0" encoding="iso-8859-1"?>
<!-- Generator: Adobe Illustrator 17.0.0, SVG Export Plug-In . SVG Version: 6.00 Build 0)  -->
<!DOCTYPE svg PUBLIC "-//W3C//DTD SVG 1.1//EN" "http://www.w3.org/Graphics/SVG/1.1/DTD/svg11.dtd">
<svg version="1.1" id="Isolation_Mode" xmlns="http://www.w3.org/2000/svg" xmlns:xlink="http://www.w3.org/1999/xlink" x="0px"
	 y="0px" width="359.984px" height="311.999px" viewBox="0 0 359.984 311.999" style="enable-background:new 0 0 359.984 311.999;"
	 xml:space="preserve">
<g>
	<path d="M179.951,311.993c-44.744,0-89.487,0.007-134.231-0.003C18.923,311.984-0.002,293.012,0,266.176
		C0.003,208.684,0.006,151.192,0.017,93.7c0.005-26.804,18.94-45.662,45.837-45.674c15.498-0.007,30.996-0.057,46.493,0.03
		c2.216,0.012,3.295-0.543,3.967-2.795c1.64-5.496,3.503-10.933,5.481-16.318c6.452-17.559,22.476-28.843,41.116-28.893
		c24.496-0.065,48.993-0.064,73.49-0.001c19.772,0.051,35.678,11.392,42.233,30.006c1.657,4.707,3.31,9.427,4.659,14.227
		c0.797,2.836,2.029,3.879,5.166,3.838c15.495-0.203,30.994-0.111,46.492-0.088c25.863,0.037,44.996,19.124,45.01,44.992
		c0.031,57.992,0.03,115.984,0,173.976c-0.013,25.844-19.174,44.972-45.029,44.987C269.938,312.011,224.944,311.993,179.951,311.993
		z M179.782,287.976c44.854,0,89.708,0.012,134.561-0.007c13.511-0.006,21.6-8.156,21.605-21.762
		c0.022-57.598,0.028-115.196,0.019-172.793c-0.002-13.077-8.244-21.367-21.238-21.384c-19.116-0.024-38.232,0.027-57.348-0.007
		c-7.112-0.013-10.85-2.709-13.143-9.42c-2.782-8.144-5.392-16.347-8.219-24.474c-3.204-9.211-10.114-14.079-19.871-14.09
		c-24.114-0.027-48.227-0.028-72.341,0c-9.883,0.012-16.791,5.022-19.988,14.453c-2.683,7.915-5.252,15.868-7.932,23.784
		c-2.413,7.125-6.101,9.737-13.671,9.743c-18.866,0.014-37.732-0.007-56.598,0.009c-13.498,0.012-21.601,8.171-21.603,21.756
		c-0.007,57.473-0.007,114.945,0,172.418c0.002,13.755,8.089,21.77,21.954,21.772C90.574,287.98,135.178,287.976,179.782,287.976z"
		/>
	<path d="M269.978,173.846c0.161,49.514-40.074,89.984-89.627,90.152c-49.602,0.168-90.278-40.089-90.365-89.436
		c-0.088-49.935,39.899-90.335,89.632-90.558C229.263,83.782,269.816,124.103,269.978,173.846z M245.979,174.058
		c-0.081-36.369-29.599-66.057-65.649-66.026c-36.933,0.031-66.401,29.578-66.317,66.495c0.082,36.059,29.832,65.477,66.209,65.471
		C216.312,239.992,246.06,210.161,245.979,174.058z"/>
	<path d="M299.903,96.029c6.531-0.063,11.969,5.265,12.058,11.814c0.089,6.529-5.215,12.027-11.73,12.161
		c-6.534,0.134-12.097-5.154-12.239-11.635C287.844,101.621,293.179,96.094,299.903,96.029z"/>
</g>
</svg>
