<?xml version="1.0" encoding="utf-8"?>
<!-- Generator: Adobe Illustrator 21.0.0, SVG Export Plug-In . SVG Version: 6.00 Build 0)  -->
<svg version="1.1" id="Isolation_Mode" xmlns="http://www.w3.org/2000/svg" xmlns:xlink="http://www.w3.org/1999/xlink" x="0px"
	 y="0px" viewBox="0 0 511.9 445.2" style="enable-background:new 0 0 511.9 445.2;" xml:space="preserve">
<g>
	<path d="M0,41c0.8-2.7,1.5-5.4,2.4-8C9,12.9,27.2,0.1,49.3,0c54.5-0.1,109,0,163.5,0c93.3,0,186.6,0,280,0c2.2,0,4.4-0.1,6.5,0.4
		c8,1.7,13.5,9.3,12.6,17.3c-0.9,8-7.6,14.2-16,14.2c-19.3,0.1-38.7,0.1-58,0.1c-16.3,0-32.7,0-49,0c-1.5,0-2.9,0-4.6,0
		c0,5.4,0,10.3,0,16c4.2,0,8.5,0,12.7,0c30.8,0,51,20.2,51,51c0,73.3,0,146.6,0,220c0,24.3-15.1,43.4-38.2,48.3c-4,0.9-8.3,1-12.4,1
		c-89,0.1-178,0.1-267,0c-29.9,0-50.3-20.3-50.4-50.1c-0.1-73.7-0.1-147.3,0-221c0-28.4,20.8-49.1,49.2-49.3c4.7,0,9.3,0,14.3,0
		c0-5.3,0-10.3,0-15.8c-1.6-0.1-3.2-0.2-4.8-0.2c-29.5,0-59,0-88.5,0C38.1,32,32,38.2,32,50.5c0,125.5,0,251,0,376.5
		c0,12-7.8,19.6-18.6,18c-7.1-1-10.8-6-13.4-12C0,302.3,0,171.7,0,41z M264,336.4c44.5,0,89,0,133.5,0c12.3,0,18.5-6.2,18.5-18.4
		c0-73.1,0-146.3,0-219.4c0-12.5-6.2-18.6-18.8-18.6c-88.8,0-177.6,0-266.4,0c-12.7,0-18.7,6-18.7,18.6c0,73,0,146,0,218.9
		c0,12.9,6,18.8,19,18.8C175.3,336.4,219.7,336.4,264,336.4z M176.2,47.7c58.7,0,117,0,175.3,0c0-5.4,0-10.4,0-15.4
		c-58.6,0-116.8,0-175.3,0C176.2,37.5,176.2,42.4,176.2,47.7z"/>
	<path d="M353.3,232.4c0,4.9,0,8.5,0,12.1c0,14.3,0.1,28.7-0.1,43c-0.1,9.6-6.5,16.4-15.8,16.5c-43.7,0.1-87.3,0.1-131,0
		c-9.2,0-15.7-6.9-15.8-16.5c-0.1-16.2,0-32.3,0-48.5c0-1.8,0-3.6,0-6.3c-2,1.5-3.2,2.5-4.4,3.4c-6.7,4.8-15.8,3.9-21.3-2.1
		c-5.3-5.8-5.5-14.9-0.3-21c0.9-1,1.8-1.9,2.8-2.9c30.4-30.4,60.8-60.8,91.2-91.2c9.2-9.2,17.6-9.2,26.7,0
		c30.4,30.4,60.9,60.7,91.1,91.3c2.9,2.9,5.3,7,6.3,10.9c1.6,6.4-2,12.8-7.6,16c-5.6,3.2-12.6,2.7-17.8-1.3
		C356.2,234.9,355.2,234,353.3,232.4z M256,271.7c0-5.5,0-10.5,0-15.5c0.1-10.1,6.8-17.3,16.1-17.2c9.2,0.1,15.8,7.3,15.9,17.4
		c0,5.1,0,10.2,0,15.2c11.5,0,22.2,0,33,0c0.1-1,0.3-1.6,0.3-2.3c0-22.1,0.1-44.3-0.1-66.4c0-2-1.4-4.4-2.8-5.9
		c-11.5-11.8-23.3-23.4-34.9-35c-3.7-3.7-7.3-7.6-10.9-11.3c-1.1,0.7-1.5,1-1.9,1.3c-15.3,15.3-30.7,30.5-45.8,46
		c-1.4,1.4-2,4.1-2,6.2c-0.1,19.6-0.1,39.3,0,58.9c0,2.8,0,5.6,0,8.6C234,271.7,244.7,271.7,256,271.7z"/>
</g>
</svg>
