<?xml version="1.0" encoding="utf-8"?>
<!-- Generator: Adobe Illustrator 17.0.0, SVG Export Plug-In . SVG Version: 6.00 Build 0)  -->
<!DOCTYPE svg PUBLIC "-//W3C//DTD SVG 1.1//EN" "http://www.w3.org/Graphics/SVG/1.1/DTD/svg11.dtd">
<svg version="1.1" id="Layer_1" xmlns="http://www.w3.org/2000/svg" xmlns:xlink="http://www.w3.org/1999/xlink" x="0px" y="0px"
	 width="269.818px" height="270.002px" viewBox="0 0 269.818 270.002" enable-background="new 0 0 269.818 270.002"
	 xml:space="preserve">
<g>
	<path d="M75.548,27.172C122.352-11.251,189.5-8.654,233.534,33.244c42.687,40.617,48.353,108.424,13.574,155.93
		c-37.644,51.42-113.428,66.185-168.01,24.571c-0.878,0.838-1.792,1.676-2.669,2.552c-15.999,15.983-32.011,31.953-47.975,47.97
		c-3.205,3.216-6.837,5.42-11.444,5.704c-6.555,0.404-12.683-3.274-15.446-9.215c-2.901-6.238-1.766-13.02,3.413-18.272
		c10.44-10.586,20.983-21.07,31.522-31.558c6.636-6.603,13.341-13.136,20.105-19.788C16.73,137.597,27.94,66.255,75.548,27.172z
		 M64.339,119.365c0.283,48.113,39.078,86.555,87.137,86.342c48.08-0.212,86.555-38.973,86.412-87.053
		c-0.143-48.087-38.921-86.685-86.937-86.534C102.702,32.273,64.056,71.201,64.339,119.365z"/>
</g>
</svg>
