<?xml version="1.0" encoding="utf-8"?>
<!-- Generator: Adobe Illustrator 17.0.0, SVG Export Plug-In . SVG Version: 6.00 Build 0)  -->
<!DOCTYPE svg PUBLIC "-//W3C//DTD SVG 1.1//EN" "http://www.w3.org/Graphics/SVG/1.1/DTD/svg11.dtd">
<svg version="1.1" id="Layer_1" xmlns="http://www.w3.org/2000/svg" xmlns:xlink="http://www.w3.org/1999/xlink" x="0px" y="0px"
	 width="360.03px" height="312.016px" viewBox="0 0 360.03 312.016" enable-background="new 0 0 360.03 312.016"
	 xml:space="preserve">
<g>
	<path d="M179.947,216.12c-30.415,0.95-59.9,3.89-87.943,15.079c-25.008,9.978-43.664,27.21-56.775,50.56
		c-4.154,7.398-8.001,14.968-11.951,22.479c-3.171,6.03-8.406,8.833-13.997,7.414c-5.88-1.491-9.278-6.111-9.28-12.843
		c-0.006-27.762,0.794-55.473,5.979-82.858c5.101-26.941,14.513-51.91,33.596-72.356c17.674-18.936,39.863-30.074,64.406-37.112
		c23.451-6.724,47.503-9.239,71.767-10.282c1.238-0.053,2.475-0.137,4.197-0.234c0-1.553,0-3.007,0-4.461
		c0.006-25.871,0.061-51.742-0.02-77.612c-0.018-5.781,1.788-10.379,7.253-12.802c5.491-2.434,10.081-0.582,14.316,3.334
		c51.02,47.169,102.092,94.282,153.136,141.425c7.165,6.618,7.201,13.649,0.082,20.223
		c-51.14,47.224-102.308,94.418-153.434,141.658c-4.133,3.819-8.668,5.552-14.01,3.219c-5.469-2.388-7.369-6.961-7.353-12.748
		c0.072-25.87,0.03-51.741,0.029-77.612C179.947,219.246,179.947,217.898,179.947,216.12z M203.975,272.546
		c42.526-39.245,84.332-77.826,126.282-116.54c-42.152-38.909-83.918-77.462-126.295-116.578c0,23.33,0.029,45.574-0.016,67.817
		c-0.016,7.747-4.917,12.572-12.64,12.769c-8.619,0.22-17.25,0.273-25.851,0.806c-23.004,1.425-45.704,4.587-67.459,12.716
		c-28.764,10.748-49.68,29.628-60.885,58.615c-6.174,15.973-9.166,32.639-10.843,49.591c-0.331,3.35-0.567,6.709-0.915,10.877
		c3.946-4.545,7.077-8.434,10.501-12.046c19.826-20.919,44.726-32.66,72.217-39.618c26.702-6.758,53.937-8.762,81.367-8.954
		c10.113-0.071,14.555,4.428,14.544,14.622C203.96,228.241,203.975,249.858,203.975,272.546z"/>
</g>
</svg>
