<?xml version="1.0" encoding="utf-8"?>
<!-- Generator: Adobe Illustrator 17.0.0, SVG Export Plug-In . SVG Version: 6.00 Build 0)  -->
<!DOCTYPE svg PUBLIC "-//W3C//DTD SVG 1.1//EN" "http://www.w3.org/Graphics/SVG/1.1/DTD/svg11.dtd">
<svg version="1.1" id="Layer_1" xmlns="http://www.w3.org/2000/svg" xmlns:xlink="http://www.w3.org/1999/xlink" x="0px" y="0px"
	 width="391.52px" height="341.84px" viewBox="0 0 391.52 341.84" enable-background="new 0 0 391.52 341.84" xml:space="preserve">
<g>
	<path d="M278.16,186.16h-53.199c-14.563,0-26.402,11.84-26.402,26.399v40.8c0,14.563,11.839,26.403,26.402,26.403h53.199
		c14.559,0,26.399-11.84,26.399-26.403v-40.8C304.559,198,292.719,186.16,278.16,186.16L278.16,186.16z M285.359,253.359
		c0,4-3.281,7.2-7.199,7.2h-53.199c-4,0-7.199-3.278-7.199-7.2v-40.8c0-4,3.277-7.2,7.199-7.2h53.199c4,0,7.199,3.282,7.199,7.2
		V253.359z M285.359,253.359"/>
	<path d="M391.52,112c0-1.68-0.399-3.281-1.282-4.719L332,4.879C330.32,1.922,327.121,0,323.68,0H67.762
		c-3.442,0-6.641,1.84-8.321,4.879L1.281,107.281C0.48,108.719,0,110.32,0,112c0,22.961,13.84,42.641,33.602,51.359v168.879
		c0,5.282,4.32,9.602,9.597,9.602h305.039c5.282,0,9.602-4.32,9.602-9.602V164.559c0-0.399,0-0.719-0.078-1.039
		C377.602,154.801,391.52,135.039,391.52,112L391.52,112z M73.359,19.281h244.719l45.524,80.078H27.922L73.359,19.281z
		 M278.641,118.48c-3.039,17.282-18.161,30.399-36.321,30.399S209.039,135.762,206,118.48H278.641z M185.602,118.48
		c-3.043,17.282-18.161,30.399-36.321,30.399S116,135.762,112.879,118.48H185.602z M19.84,118.48h72.719
		c-3.039,17.282-18.239,30.399-36.399,30.399C38,148.961,22.879,135.762,19.84,118.48L19.84,118.48z M161.281,322.641h-55.203
		V219.039c0-7.519,6.082-13.68,13.684-13.68h27.918c7.519,0,13.679,6.082,13.679,13.68v103.602H161.281z M338.641,322.641H180.48
		V219.039c0-18.078-14.718-32.879-32.878-32.879H119.68c-18.078,0-32.879,14.719-32.879,32.879v103.68h-34V168.078
		c1.121,0.082,2.238,0.082,3.359,0.082c19.36,0,36.481-9.84,46.559-24.801c10.082,14.961,27.203,24.801,46.562,24.801
		c19.36,0,36.399-9.84,46.559-24.801c10.082,14.961,27.199,24.801,46.48,24.801c19.36,0,36.399-9.84,46.481-24.801
		C298.879,158.32,316,168.16,335.359,168.16c1.121,0,2.161-0.082,3.282-0.082V322.641z M335.359,148.961
		c-18.16,0-33.281-13.121-36.32-30.402h72.723C368.641,135.762,353.52,148.961,335.359,148.961L335.359,148.961z M335.359,148.961"
		/>
</g>
</svg>
