<?xml version="1.0" encoding="iso-8859-1"?>
<!-- Generator: Adobe Illustrator 17.0.0, SVG Export Plug-In . SVG Version: 6.00 Build 0)  -->
<!DOCTYPE svg PUBLIC "-//W3C//DTD SVG 1.1//EN" "http://www.w3.org/Graphics/SVG/1.1/DTD/svg11.dtd">
<svg version="1.1" id="Layer_1" xmlns="http://www.w3.org/2000/svg" xmlns:xlink="http://www.w3.org/1999/xlink" x="0px" y="0px"
	 width="384.001px" height="225px" viewBox="0 0 384.001 225" style="enable-background:new 0 0 384.001 225;" xml:space="preserve"
	>
<g>
	<g>
		<defs>
			<rect id="SVGID_1_" x="0.001" width="384" height="225"/>
		</defs>
		<clipPath id="SVGID_2_">
			<use xlink:href="#SVGID_1_"  style="overflow:visible;"/>
		</clipPath>
		<path style="clip-path:url(#SVGID_2_);" d="M382.571,108.453c-3.023-4.402-75.695-107.457-190.574-107.457
			C93.423,0.996,5.579,103.461,1.884,107.828c-2.512,2.977-2.512,7.344,0,10.336c3.695,4.367,91.539,106.832,190.113,106.832
			c98.578,0,186.414-102.465,190.113-106.832C384.431,115.414,384.638,111.43,382.571,108.453L382.571,108.453z M191.997,208.996
			c-79.023,0-154.16-75.359-173.246-96c19.055-20.656,94.109-96,173.246-96c92.465,0,157.727,75.25,173.664,95.57
			C347.259,132.547,271.692,208.996,191.997,208.996L191.997,208.996z M191.997,208.996"/>
	</g>
	<path d="M191.997,48.996c-35.297,0-64,28.703-64,64s28.703,64,64,64s64-28.703,64-64S227.294,48.996,191.997,48.996L191.997,48.996
		z M191.997,160.996c-26.465,0-48-21.535-48-48c0-26.461,21.535-48,48-48s48,21.539,48,48
		C239.997,139.461,218.462,160.996,191.997,160.996L191.997,160.996z M191.997,160.996"/>
</g>
</svg>
